#!OML:ASF H:\Martial Arts Walks\Project 1\Capture day 1\Session 1\male.ASF
:FULLY-SPECIFIED
:DEGREES
1154
root -2.27082 14.1994 12.4682 8.01888 30.169 8.16965
lowerback 11.3214 2.28506 -10.541
upperback -1.58762 1.54774 -0.126521
thorax -8.40548 1.24902 5.52387
lowerneck 1.67452 -11.5683 -12.4791
upperneck 3.2524 -15.873 9.56783
head 2.45193 -7.97836 4.32995
rclavicle -3.5334e-014 2.94201e-014
rhumerus 4.62587 11.1978 -59.0534
rradius 29.0241
rwrist 19.139
rhand -15.5767 -14.1198
rfingers 7.12502
rthumb 10.6085 -43.8321
lclavicle -3.5334e-014 2.94201e-014
lhumerus -71.7881 -18.6332 103.618
lradius 102.318
lwrist 47.1759
lhand 6.3605 42.5777
lfingers 7.12502
lthumb 31.6668 69.8499
rfemur -61.6592 -26.7471 11.0995
rtibia 69.9224
rfoot -8.20116 11.6145
rtoes 2.64197
lfemur 9.4737 9.39243 -5.31931
ltibia 33.6599
lfoot -16.9631 27.9819
ltoes -25.9267
1155
root -2.27794 14.1962 12.4516 8.00913 30.2476 8.10356
lowerback 11.3843 2.25372 -10.4999
upperback -1.58121 1.50357 -0.137146
thorax -8.42479 1.22605 5.49682
lowerneck 1.69633 -11.5638 -12.5092
upperneck 3.14863 -15.8703 9.68748
head 2.4294 -7.97653 4.37375
rclavicle -2.88238e-015 2.5842e-014
rhumerus 4.6749 11.2141 -59.0154
rradius 29.0148
rwrist 19.1768
rhand -15.4274 -14.1944
rfingers 7.12502
rthumb 10.7525 -43.8992
lclavicle -2.88238e-015 2.5842e-014
lhumerus -71.7822 -18.7186 103.636
lradius 102.324
lwrist 47.1438
lhand 6.41659 42.5071
lfingers 7.12502
lthumb 31.7202 69.7688
rfemur -61.6608 -26.4905 11.0518
rtibia 69.8841
rfoot -8.1378 11.322
rtoes 1.74317
lfemur 8.95642 9.44384 -5.23538
ltibia 34.419
lfoot -17.1315 28.0012
ltoes -25.2886
1156
root -2.28537 14.1925 12.4311 7.97509 30.3567 7.99774
lowerback 11.4672 2.2153 -10.4088
upperback -1.56863 1.45541 -0.14353
thorax -8.44639 1.19874 5.44683
lowerneck 1.7269 -11.5566 -12.5418
upperneck 3.01961 -15.8644 9.82438
head 2.39922 -7.97322 4.42453
rclavicle 1.61016e-014 1.19271e-014
rhumerus 4.72165 11.2319 -58.9668
rradius 29.0195
rwrist 19.1879
rhand -15.2813 -14.2621
rfingers 7.12502
rthumb 10.8934 -43.9595
lclavicle 1.61016e-014 1.19271e-014
lhumerus -71.7728 -18.8255 103.664
lradius 102.332
lwrist 47.0932
lhand 6.46977 42.4117
lfingers 7.12502
lthumb 31.7708 69.6633
rfemur -61.6396 -26.2175 11.0124
rtibia 69.8287
rfoot -8.05754 11.0063
rtoes 0.842126
lfemur 8.34062 9.48013 -5.11611
ltibia 35.3354
lfoot -17.3356 28.019
ltoes -24.5825
1157
root -2.29312 14.1886 12.4056 7.92022 30.5284 7.86061
lowerback 11.5875 2.16021 -10.2613
upperback -1.54905 1.38951 -0.146011
thorax -8.47694 1.16041 5.37234
lowerneck 1.7551 -11.5498 -12.5762
upperneck 2.87175 -15.8581 9.97341
head 2.36493 -7.96959 4.47959
rclavicle -1.00883e-014 -4.13472e-014
rhumerus 4.77419 11.2499 -58.8996
rradius 29.038
rwrist 19.1497
rhand -15.1432 -14.3197
rfingers 7.12502
rthumb 11.0267 -44.0101
lclavicle -1.00883e-014 -4.13472e-014
lhumerus -71.7487 -18.9578 103.706
lradius 102.334
lwrist 47.0226
lhand 6.51526 42.3107
lfingers 7.12502
lthumb 31.8142 69.5537
rfemur -61.587 -25.9656 10.9744
rtibia 69.7478
rfoot -7.95278 10.6659
rtoes -0.0530546
lfemur 7.60607 9.45728 -4.97893
ltibia 36.4163
lfoot -17.5502 28.0431
ltoes -23.84
1158
root -2.30088 14.1849 12.3753 7.84053 30.7532 7.68378
lowerback 11.7304 2.09292 -10.0572
upperback -1.52038 1.31439 -0.141723
thorax -8.50746 1.11475 5.27508
lowerneck 1.78571 -11.5442 -12.6103
upperneck 2.70586 -15.8529 10.1334
head 2.32594 -7.96661 4.53843
rclavicle -7.00716e-015 -5.56597e-015
rhumerus 4.82717 11.2523 -58.8147
rradius 29.0694
rwrist 19.0597
rhand -15.0261 -14.3703
rfingers 7.12502
rthumb 11.1396 -44.0546
lclavicle -7.00716e-015 -5.56597e-015
lhumerus -71.7105 -19.1276 103.767
lradius 102.334
lwrist 46.9308
lhand 6.54721 42.2122
lfingers 7.12502
lthumb 31.8446 69.4492
rfemur -61.5018 -25.7283 10.9481
rtibia 69.6369
rfoot -7.82608 10.3032
rtoes -0.930986
lfemur 6.76234 9.37987 -4.8171
ltibia 37.6563
lfoot -17.7697 28.0609
ltoes -23.0678
1159
root -2.30841 14.1818 12.3399 7.74095 31.0412 7.47956
lowerback 11.8986 2.01189 -9.80354
upperback -1.4826 1.2269 -0.132228
thorax -8.53947 1.06062 5.15796
lowerneck 1.81954 -11.5419 -12.64
upperneck 2.525 -15.8514 10.2981
head 2.28251 -7.96557 4.59853
rclavicle -3.76697e-014 -2.70347e-014
rhumerus 4.88773 11.241 -58.699
rradius 29.1064
rwrist 18.9149
rhand -14.9282 -14.4269
rfingers 7.12502
rthumb 11.234 -44.1061
lclavicle -3.76697e-014 -2.70347e-014
lhumerus -71.6539 -19.3474 103.854
lradius 102.323
lwrist 46.8277
lhand 6.5573 42.1088
lfingers 7.12502
lthumb 31.8542 69.3439
rfemur -61.3806 -25.5228 10.9204
rtibia 69.4903
rfoot -7.6719 9.92602
rtoes -1.78784
lfemur 5.81193 9.2272 -4.64558
ltibia 39.0471
lfoot -17.9715 28.0619
ltoes -22.3128
1160
root -2.31571 14.179 12.3 7.62804 31.3626 7.24717
lowerback 12.0675 1.9267 -9.52077
upperback -1.43676 1.14019 -0.114553
thorax -8.56317 1.00506 5.03343
lowerneck 1.85314 -11.5444 -12.6657
upperneck 2.3399 -15.8557 10.4632
head 2.23829 -7.96751 4.65786
rclavicle 9.47209e-014 1.98785e-015
rhumerus 4.95746 11.2112 -58.5524
rradius 29.1404
rwrist 18.7328
rhand -14.8609 -14.5076
rfingers 7.12502
rthumb 11.2989 -44.1832
lclavicle 9.47209e-014 1.98785e-015
lhumerus -71.5803 -19.6207 103.965
lradius 102.304
lwrist 46.7101
lhand 6.56068 41.9906
lfingers 7.12502
lthumb 31.8574 69.225
rfemur -61.2409 -25.3189 10.8979
rtibia 69.3084
rfoot -7.49184 9.53145
rtoes -2.65002
lfemur 4.76815 9.01936 -4.46433
ltibia 40.5727
lfoot -18.1294 28.0337
ltoes -21.6316
1161
root -2.32281 14.1764 12.2553 7.50738 31.7019 6.98917
lowerback 12.2281 1.84364 -9.21988
upperback -1.38869 1.06173 -0.0887393
thorax -8.58146 0.952598 4.90613
lowerneck 1.90426 -11.5503 -12.6849
upperneck 2.14567 -15.8654 10.6266
head 2.18864 -7.97278 4.71693
rclavicle -7.00716e-015 3.53837e-014
rhumerus 5.03325 11.1709 -58.3702
rradius 29.1576
rwrist 18.5218
rhand -14.8409 -14.6063
rfingers 7.12502
rthumb 11.3182 -44.2809
lclavicle -7.00716e-015 3.53837e-014
lhumerus -71.4946 -19.9548 104.104
lradius 102.264
lwrist 46.5838
lhand 6.56251 41.8327
lfingers 7.12502
lthumb 31.8592 69.0668
rfemur -61.0952 -25.1052 10.8811
rtibia 69.0914
rfoot -7.2843 9.12543
rtoes -3.53182
lfemur 3.63904 8.76445 -4.2751
ltibia 42.221
lfoot -18.2443 27.9478
ltoes -21.0324
